<svg xmlns="http://www.w3.org/2000/svg" width="20" height="20" viewBox="0 0 20 20" fill="none">
  <path d="M4.16663 15.8333V8.58999C4.16663 8.37666 4.2144 8.17471 4.30996 7.98416C4.40551 7.7936 4.53718 7.63666 4.70496 7.51333L9.19246 4.11499C9.42746 3.93555 9.69579 3.84583 9.99746 3.84583C10.2991 3.84583 10.5691 3.93555 10.8075 4.11499L15.295 7.51249C15.4633 7.63583 15.595 7.79305 15.69 7.98416C15.7855 8.17471 15.8333 8.37666 15.8333 8.58999V15.8333C15.8333 16.0567 15.7502 16.2514 15.5841 16.4175C15.418 16.5836 15.2233 16.6667 15 16.6667H12.18C11.9888 16.6667 11.8288 16.6022 11.7 16.4733C11.5711 16.3439 11.5066 16.1839 11.5066 15.9933V12.0192C11.5066 11.8286 11.4422 11.6689 11.3133 11.54C11.1838 11.4105 11.0238 11.3458 10.8333 11.3458H9.16663C8.97607 11.3458 8.81635 11.4105 8.68746 11.54C8.55801 11.6689 8.49329 11.8286 8.49329 12.0192V15.9942C8.49329 16.1847 8.42885 16.3444 8.29996 16.4733C8.17107 16.6022 8.01135 16.6667 7.82079 16.6667H4.99996C4.77663 16.6667 4.5819 16.5836 4.41579 16.4175C4.24968 16.2514 4.16663 16.0567 4.16663 15.8333Z" fill="black"/>
</svg>