<svg xmlns="http://www.w3.org/2000/svg" width="19" height="19" viewBox="0 0 19 19" fill="none">
  <path d="M13.1069 10.2173L12.7467 10.5759C12.7467 10.5759 11.8893 11.4277 9.5499 9.10182C7.21053 6.7759 8.0679 5.92407 8.0679 5.92407L8.29432 5.69765C8.85403 5.1419 8.90707 4.2489 8.41861 3.59657L7.42111 2.26419C6.81628 1.45669 5.64857 1.34982 4.95586 2.03857L3.71294 3.27357C3.37015 3.61557 3.14057 4.05732 3.16828 4.54815C3.23953 5.80452 3.80794 8.50648 6.97778 11.6589C10.34 15.0013 13.4948 15.1343 14.7844 15.014C15.1929 14.976 15.5476 14.7686 15.8334 14.4836L16.9575 13.3657C17.7175 12.6113 17.5038 11.3169 16.5316 10.7889L15.0195 9.96632C14.3814 9.62036 13.6056 9.72169 13.1069 10.2173Z" fill="black"/>
</svg>