<svg xmlns="http://www.w3.org/2000/svg" width="21" height="21" viewBox="0 0 21 21" fill="none">
  <path d="M6.17498 2.11577L7.19611 1.80864C7.75549 1.63996 8.35713 1.68057 8.88877 1.92288C9.42041 2.1652 9.84573 2.59266 10.0854 3.12552L10.8746 4.88077C11.0806 5.33909 11.138 5.85042 11.0387 6.34301C10.9393 6.8356 10.6883 7.28473 10.3207 7.62739L9.01261 8.84627C8.9744 8.88188 8.95019 8.92999 8.94436 8.98189C8.90586 9.32927 9.14123 10.0056 9.68461 10.9463C10.0784 11.6296 10.4362 12.11 10.7399 12.3786C10.9525 12.5668 11.0689 12.607 11.1187 12.593L12.8775 12.0549C13.3578 11.908 13.872 11.915 14.3481 12.0751C14.8242 12.2352 15.2382 12.5402 15.5322 12.9474L16.6522 14.5014C16.9932 14.9739 17.1511 15.554 17.0968 16.1341C17.0424 16.7142 16.7793 17.2549 16.3565 17.6558L15.5804 18.3908C15.1689 18.7804 14.6635 19.0569 14.1135 19.1932C13.5635 19.3295 12.9875 19.321 12.4417 19.1686C10.032 18.4958 7.87161 16.4623 5.93611 13.1101C3.99886 9.75364 3.31811 6.86264 3.94636 4.43627C4.08739 3.89056 4.36661 3.39038 4.75711 2.98394C5.14761 2.5775 5.63535 2.2785 6.17498 2.11577ZM6.55473 3.37314C6.23089 3.47054 5.93758 3.64971 5.7031 3.89339C5.46862 4.13707 5.30085 4.43704 5.21598 4.76439C4.68923 6.80489 5.29211 9.36777 7.07361 12.4539C8.85336 15.5356 10.7687 17.339 12.7961 17.9051C13.1236 17.9965 13.4692 18.0015 13.7992 17.9196C14.1291 17.8377 14.4323 17.6717 14.6791 17.4379L15.4544 16.7029C15.6467 16.5207 15.7664 16.2749 15.7911 16.0111C15.8159 15.7474 15.7441 15.4836 15.5891 15.2688L14.4691 13.7156C14.3355 13.5303 14.1471 13.3915 13.9306 13.3187C13.714 13.2459 13.4801 13.2427 13.2616 13.3096L11.4985 13.8495C10.4747 14.154 9.54636 13.3306 8.54886 11.6025C7.87511 10.4388 7.56186 9.53752 7.64061 8.83664C7.68086 8.47264 7.85061 8.13664 8.11748 7.88639L9.42561 6.66752C9.59261 6.51168 9.70662 6.30746 9.75166 6.08353C9.7967 5.85959 9.7705 5.62718 9.67673 5.41889L8.88836 3.66364C8.77942 3.42143 8.58607 3.22713 8.3444 3.11701C8.10273 3.00688 7.82925 2.98844 7.57498 3.06514L6.55473 3.37314Z" fill="black"/>
</svg>