<svg width="25" height="25" viewBox="0 0 25 25" fill="none" xmlns="http://www.w3.org/2000/svg">
<circle cx="12.5" cy="12.5" r="12" stroke="#939393"/>
<path d="M10.88 6H14.288L13.744 13.76H11.424L10.88 6ZM12.592 18.16C12.048 18.16 11.6053 18.0053 11.264 17.696C10.9333 17.3867 10.768 16.9813 10.768 16.48C10.768 15.968 10.9333 15.5573 11.264 15.248C11.6053 14.9387 12.048 14.784 12.592 14.784C13.136 14.784 13.5733 14.9387 13.904 15.248C14.2347 15.5573 14.4 15.968 14.4 16.48C14.4 16.9813 14.2347 17.3867 13.904 17.696C13.5733 18.0053 13.136 18.16 12.592 18.16Z" fill="#9B9B9B"/>
</svg>
